<?xml version="1.0" standalone="no"?>
<!DOCTYPE svg PUBLIC "-//W3C//DTD SVG 20010904//EN"
 "http://www.w3.org/TR/2001/REC-SVG-20010904/DTD/svg10.dtd">
<svg version="1.0" xmlns="http://www.w3.org/2000/svg"
 width="332.000000pt" height="150.000000pt" viewBox="0 0 332.000000 150.000000"
 preserveAspectRatio="xMidYMid meet">

<g transform="translate(0.000000,150.000000) scale(0.100000,-0.100000)"
fill="#000000" stroke="none">
<path d="M710 1473 c-1 -5 -1 -87 -2 -183 l-1 -175 181 -3 180 -2 36 33 c43
41 48 88 15 131 -21 27 -21 28 -3 61 17 32 17 36 1 70 -31 66 -60 75 -244 75
-90 0 -163 -3 -163 -7z m319 -88 c15 -15 14 -18 -8 -36 -19 -16 -39 -19 -115
-19 -93 0 -116 8 -116 40 0 30 19 35 121 33 79 -2 106 -6 118 -18z m9 -137
c18 -18 14 -46 -7 -58 -11 -5 -67 -10 -125 -10 -104 0 -106 0 -112 25 -13 51
-4 55 119 55 74 0 117 -4 125 -12z"/>
<path d="M1244 1467 c-2 -7 -3 -89 -2 -182 l3 -170 176 -3 177 -2 5 27 c3 15
3 31 0 35 -2 5 -60 8 -127 8 -94 0 -126 3 -135 14 -8 9 -12 55 -11 133 1 65 1
126 1 136 -1 13 -10 17 -41 17 -24 0 -43 -5 -46 -13z"/>
<path d="M1690 1295 l0 -185 196 0 195 0 -3 33 -3 32 -144 5 c-133 5 -145 7
-151 25 -16 43 4 54 103 57 l92 3 3 32 3 32 -97 3 c-88 3 -97 5 -104 24 -15
41 0 46 136 45 71 0 135 4 143 8 7 5 11 21 9 37 l-3 29 -187 3 -188 2 0 -185z"/>
<path d="M2180 1345 c0 -187 17 -214 156 -245 61 -13 153 1 203 31 53 32 60
52 61 194 1 72 1 136 1 143 -1 9 -14 12 -43 10 l-43 -3 -5 -132 c-4 -117 -7
-134 -25 -147 -29 -22 -101 -30 -144 -17 -65 19 -70 32 -73 171 l-3 125 -42 3
-43 3 0 -136z"/>
<path d="M1473 863 c-9 -3 -13 -31 -13 -89 l0 -84 63 0 c53 0 67 4 84 23 64
70 18 158 -82 156 -22 0 -46 -3 -52 -6z m95 -39 c49 -14 36 -87 -18 -99 -40
-9 -57 7 -55 49 3 55 17 65 73 50z"/>
<path d="M1702 857 c-7 -8 -11 -44 -9 -88 l2 -74 78 -3 c71 -3 78 -1 75 15 -3
14 -12 17 -46 15 -45 -3 -86 13 -77 29 4 5 24 9 46 9 33 0 40 3 37 18 -2 11
-14 18 -33 20 -72 7 -70 23 3 32 33 3 47 10 47 20 0 21 -107 27 -123 7z"/>
<path d="M494 457 c-144 -54 -192 -211 -101 -330 31 -41 103 -77 152 -77 44 0
114 32 149 69 30 31 27 52 -8 70 -20 11 -26 9 -55 -18 -42 -39 -88 -48 -134
-26 -55 26 -74 65 -69 142 1 12 18 38 37 58 31 30 42 35 84 35 43 0 53 -4 84
-36 l35 -36 26 18 c14 11 26 24 26 30 0 21 -73 83 -118 98 -53 18 -66 19 -108
3z"/>
<path d="M804 447 c-2 -7 -3 -96 -2 -197 l3 -185 40 0 40 0 -3 76 c-3 52 0 79
8 84 16 10 172 11 188 1 8 -5 12 -35 12 -87 l0 -79 29 0 c17 0 32 4 36 10 8
13 8 366 0 380 -3 5 -19 10 -36 10 l-29 0 0 -65 c0 -44 -4 -67 -12 -70 -7 -2
-50 -6 -96 -8 -97 -4 -105 1 -102 70 2 26 2 54 1 61 -1 16 -70 16 -77 -1z"/>
<path d="M1403 453 c-7 -2 -13 -9 -13 -14 0 -5 -8 -28 -19 -52 -37 -82 -59
-133 -86 -192 -50 -111 -54 -119 -49 -127 3 -4 22 -8 43 -8 34 0 40 4 57 40
l19 40 102 0 101 0 19 -37 c18 -34 25 -38 61 -41 48 -4 51 3 23 62 -11 23 -28
61 -39 86 -11 25 -29 65 -40 90 -11 25 -32 71 -46 103 l-25 57 -48 -1 c-26 0
-54 -3 -60 -6z m73 -110 c4 -10 15 -37 25 -60 10 -24 19 -47 19 -53 0 -12
-117 -13 -124 -1 -3 5 5 29 19 53 14 23 25 51 25 61 0 9 7 17 15 17 9 0 18 -8
21 -17z"/>
<path d="M1755 448 c-3 -8 -4 -97 -3 -198 l3 -185 35 0 35 0 3 138 c1 81 7
137 12 137 6 0 25 -22 43 -49 141 -213 170 -244 212 -227 13 5 15 33 13 198
l-3 193 -35 0 -35 0 -3 -108 c-1 -60 -7 -107 -12 -105 -5 2 -41 50 -82 108
l-73 105 -53 3 c-37 2 -54 -1 -57 -10z"/>
<path d="M2250 260 l0 -200 150 0 150 0 6 25 c13 51 4 55 -116 55 l-110 0 0
40 0 39 88 3 87 3 0 35 0 35 -87 3 -88 3 0 39 0 40 101 0 100 0 -3 38 -3 37
-137 3 -138 3 0 -201z"/>
<path d="M2664 447 c-2 -7 -3 -96 -2 -197 l3 -185 148 -3 147 -3 0 40 0 40
-106 3 -107 3 1 143 c0 79 -2 150 -5 158 -7 18 -72 19 -79 1z"/>
</g>
</svg>
