<?xml version="1.0" standalone="no"?>
<!DOCTYPE svg PUBLIC "-//W3C//DTD SVG 20010904//EN"
 "http://www.w3.org/TR/2001/REC-SVG-20010904/DTD/svg10.dtd">
<svg version="1.0" xmlns="http://www.w3.org/2000/svg"
 width="332.000000pt" height="150.000000pt" viewBox="0 0 332.000000 150.000000"
 preserveAspectRatio="xMidYMid meet">

<g transform="translate(0.000000,150.000000) scale(0.100000,-0.100000)"
fill="#000000" stroke="none">
<path d="M1745 1459 c-4 -6 -6 -281 -4 -610 l4 -599 48 0 47 0 0 143 c0 127 2
146 18 160 10 10 21 17 24 17 2 0 94 -72 204 -160 l199 -160 58 0 c32 0 56 3
53 7 -2 5 -104 87 -225 183 -121 96 -220 178 -220 182 -1 3 79 71 177 150
l178 143 -54 3 -53 3 -175 -140 c-96 -78 -178 -141 -182 -141 -4 0 -7 186 -7
412 l0 413 -42 3 c-24 2 -44 -2 -48 -9z"/>
<path d="M1221 930 c-118 -31 -210 -102 -263 -202 -18 -34 -23 -59 -23 -123 0
-70 4 -86 28 -128 64 -108 142 -164 277 -198 130 -33 273 -13 384 55 l40 24
-32 19 -32 20 -57 -29 c-155 -77 -347 -48 -459 70 -158 164 -47 395 213 442
77 13 160 1 242 -35 57 -26 60 -26 91 -10 l33 17 -45 29 c-55 36 -182 69 -262
68 -34 0 -94 -9 -135 -19z"/>
<path d="M964 156 c-35 -35 -42 -63 -24 -97 25 -47 122 -64 183 -32 18 9 26
18 20 20 -7 3 -23 -3 -35 -11 -38 -27 -95 -21 -129 13 -43 44 -37 76 21 115
33 22 68 20 109 -5 41 -25 52 -19 15 10 -19 15 -41 21 -76 21 -43 0 -54 -4
-84 -34z"/>
<path d="M1360 100 c0 -53 4 -90 10 -90 6 0 10 37 10 90 0 53 -4 90 -10 90 -6
0 -10 -37 -10 -90z"/>
<path d="M1550 175 c0 -8 7 -15 15 -15 8 0 15 7 15 15 0 8 -7 15 -15 15 -8 0
-15 -7 -15 -15z"/>
<path d="M1830 100 c0 -53 4 -90 10 -90 6 0 10 13 10 29 0 45 27 48 70 6 50
-49 66 -44 18 5 -21 23 -38 45 -38 50 0 5 16 25 35 46 56 59 30 54 -30 -6
l-55 -54 0 52 c0 29 -4 52 -10 52 -6 0 -10 -37 -10 -90z"/>
<path d="M1990 100 c0 -53 4 -90 10 -90 6 0 10 37 10 90 0 53 -4 90 -10 90 -6
0 -10 -37 -10 -90z"/>
<path d="M2220 175 c0 -8 5 -15 10 -15 6 0 10 7 10 15 0 8 -4 15 -10 15 -5 0
-10 -7 -10 -15z"/>
<path d="M1186 119 c-33 -26 -33 -53 -1 -84 26 -27 72 -33 106 -15 13 7 19 7
19 0 0 -5 5 -10 10 -10 6 0 10 28 10 65 0 37 -4 65 -10 65 -5 0 -10 -5 -10
-12 0 -9 -3 -9 -12 0 -19 19 -82 14 -112 -9z m106 -6 c38 -34 7 -93 -49 -93
-26 0 -63 32 -63 55 0 45 76 71 112 38z"/>
<path d="M1422 75 c18 -36 37 -65 43 -65 6 0 25 29 43 65 17 36 28 65 24 65
-5 0 -19 -22 -32 -50 -13 -27 -27 -50 -32 -50 -4 0 -19 23 -33 50 -14 28 -30
50 -35 50 -5 0 5 -29 22 -65z"/>
<path d="M1550 75 c0 -51 3 -65 15 -65 12 0 15 14 15 65 0 51 -3 65 -15 65
-12 0 -15 -14 -15 -65z"/>
<path d="M1600 73 c0 -35 4 -63 10 -63 6 0 10 20 10 44 0 50 19 76 54 76 33 0
44 -18 47 -73 4 -62 19 -61 19 2 0 67 -16 82 -86 79 l-54 -2 0 -63z"/>
<path d="M2052 124 c-22 -15 -30 -57 -14 -80 24 -37 97 -44 133 -14 28 22 14
27 -15 5 -25 -19 -56 -19 -84 1 -37 26 -25 34 53 34 82 0 94 11 53 50 -27 25
-93 27 -126 4z m110 -11 c30 -27 21 -33 -47 -33 -36 0 -65 3 -65 7 0 3 7 15
17 25 20 22 70 23 95 1z"/>
<path d="M2220 75 c0 -37 4 -65 10 -65 6 0 10 28 10 65 0 37 -4 65 -10 65 -6
0 -10 -28 -10 -65z"/>
<path d="M2265 74 c0 -80 22 -90 27 -13 4 61 21 79 65 63 25 -8 28 -15 31 -62
2 -28 7 -52 13 -52 15 0 10 84 -7 108 -13 19 -24 22 -72 21 l-58 -2 1 -63z"/>
</g>
</svg>
