<?xml version="1.0" standalone="no"?>
<!DOCTYPE svg PUBLIC "-//W3C//DTD SVG 20010904//EN"
 "http://www.w3.org/TR/2001/REC-SVG-20010904/DTD/svg10.dtd">
<svg version="1.0" xmlns="http://www.w3.org/2000/svg"
 width="332.000000pt" height="150.000000pt" viewBox="0 0 332.000000 150.000000"
 preserveAspectRatio="xMidYMid meet">

<g transform="translate(0.000000,150.000000) scale(0.100000,-0.100000)"
fill="#000000" stroke="none">
<path d="M276 1038 c-95 -12 -152 -54 -202 -148 -23 -43 -26 -185 -5 -244 18
-51 76 -115 126 -137 53 -24 147 -24 201 0 43 19 114 77 114 92 0 5 -20 -6
-44 -25 -25 -18 -68 -39 -96 -46 -96 -23 -167 24 -210 137 -18 47 -21 72 -17
134 9 137 83 229 185 229 53 0 99 -33 140 -100 19 -30 31 -44 27 -30 -4 14 -8
32 -10 40 -23 93 -26 101 -40 90 -8 -7 -18 -9 -23 -6 -23 14 -93 21 -146 14z"/>
<path d="M553 1036 c-38 -13 -56 -29 -28 -24 19 3 20 -3 23 -239 l2 -243 -31
-12 c-29 -12 -27 -13 40 -13 39 0 71 3 71 8 0 4 -6 7 -14 7 -11 0 -15 19 -18
81 -3 76 -1 83 21 100 13 11 31 19 40 19 33 0 41 -22 41 -108 0 -75 -2 -84
-20 -89 -38 -10 -19 -19 41 -18 54 0 58 1 40 14 -19 12 -21 24 -21 107 0 85
-2 94 -22 108 -31 22 -52 20 -87 -10 -17 -14 -31 -22 -31 -17 -1 4 0 81 0 170
0 89 -3 163 -7 166 -4 2 -22 -1 -40 -7z"/>
<path d="M2152 1001 c69 -14 68 -11 68 -240 0 -222 -3 -236 -50 -244 -14 -2
47 -5 135 -6 88 0 176 4 196 9 104 29 153 106 152 234 -1 97 -21 153 -69 195
-56 49 -116 61 -303 60 -99 -1 -151 -4 -129 -8z m339 -31 c59 -30 74 -74 74
-210 0 -132 -17 -181 -72 -213 -41 -23 -166 -35 -188 -17 -13 10 -15 47 -15
229 0 160 3 220 13 230 17 18 140 5 188 -19z"/>
<path d="M1047 863 c-15 -14 -7 -43 12 -43 23 0 34 23 18 39 -13 13 -21 14
-30 4z"/>
<path d="M1526 854 c-8 -21 1 -34 24 -34 22 0 33 23 17 39 -16 16 -34 14 -41
-5z"/>
<path d="M2710 855 c-9 -11 -10 -19 -3 -26 17 -17 48 -6 48 16 0 25 -28 31
-45 10z"/>
<path d="M1383 800 c-13 -11 -23 -29 -23 -40 0 -11 -9 -20 -22 -23 l-23 -4 23
-2 c21 -1 22 -5 22 -88 0 -110 13 -139 59 -136 18 0 38 6 44 12 7 7 1 10 -19
8 l-29 -2 -3 103 -3 102 37 0 c21 0 34 3 30 7 -4 4 -19 7 -34 8 -24 0 -28 5
-32 38 l-5 38 -22 -21z"/>
<path d="M843 729 c-45 -19 -57 -31 -23 -22 19 5 20 0 20 -91 0 -89 -1 -96
-20 -96 -11 0 -20 -3 -20 -7 0 -5 31 -8 70 -9 38 0 67 3 64 8 -3 4 -14 8 -25
8 -17 0 -19 7 -19 68 0 84 17 113 63 109 26 -2 33 2 35 21 5 31 -31 30 -64 -3
-14 -14 -27 -25 -29 -25 -2 0 -5 13 -7 29 l-3 28 -42 -18z"/>
<path d="M1040 732 c-25 -11 -30 -17 -17 -19 15 -4 17 -17 17 -94 0 -86 -1
-90 -25 -99 -14 -5 -25 -11 -25 -12 0 -2 29 -3 65 -3 64 0 84 8 45 18 -17 4
-20 15 -22 114 l-3 110 -35 -15z"/>
<path d="M1180 730 c-38 -38 -22 -86 40 -121 42 -24 53 -40 44 -64 -20 -50
-91 -34 -111 25 l-12 35 0 -43 c-1 -37 2 -44 27 -53 15 -6 44 -8 65 -6 83 11
104 76 40 124 -73 56 -85 71 -73 93 7 13 21 20 41 20 24 0 33 -6 44 -32 l14
-33 1 38 0 37 -50 0 c-37 0 -55 -5 -70 -20z"/>
<path d="M1525 729 c-31 -14 -35 -18 -17 -18 22 -1 23 -3 20 -93 -3 -84 -5
-93 -23 -96 -48 -9 -30 -18 35 -18 69 1 89 9 50 19 -17 4 -20 15 -22 114 l-3
110 -40 -18z"/>
<path d="M1672 730 c-28 -26 -29 -60 -3 -60 14 0 21 8 23 26 3 31 28 50 52 41
11 -4 16 -19 16 -47 0 -39 -2 -41 -60 -70 -65 -33 -82 -54 -69 -87 12 -31 50
-38 94 -17 35 16 38 16 47 1 10 -19 45 -22 68 -7 12 8 11 10 -7 10 -22 0 -23
3 -23 95 0 82 -3 98 -20 115 -27 27 -89 27 -118 0z m88 -138 c0 -41 -14 -62
-41 -62 -46 0 -47 60 -1 85 39 21 42 19 42 -23z"/>
<path d="M1986 725 c-44 -30 -46 -30 -39 -5 6 24 -19 27 -57 5 -19 -11 -21
-14 -7 -15 15 0 17 -11 17 -95 0 -78 -3 -95 -15 -95 -8 0 -15 -3 -15 -7 0 -5
28 -8 63 -9 50 -1 58 1 39 9 -21 10 -23 15 -20 91 3 79 4 80 36 99 51 30 62
13 62 -94 0 -72 -3 -89 -15 -89 -8 0 -15 -3 -15 -7 0 -5 24 -8 54 -8 30 0 52
3 49 8 -2 4 -11 7 -19 7 -11 0 -14 19 -14 99 0 67 -4 102 -12 109 -30 23 -55
22 -92 -3z"/>
<path d="M2710 732 c-26 -12 -30 -17 -17 -20 16 -3 17 -14 15 -95 -3 -87 -4
-92 -25 -95 -47 -7 -21 -17 42 -17 36 0 65 3 65 8 0 4 -6 7 -14 7 -20 0 -27
41 -25 137 1 46 0 85 -2 87 -2 2 -20 -4 -39 -12z"/>
<path d="M2890 743 c-30 -11 -60 -48 -70 -84 -27 -99 82 -188 174 -144 91 44
101 176 16 220 -28 15 -90 19 -120 8z m79 -19 c50 -35 67 -132 30 -178 -22
-27 -48 -33 -80 -16 -49 27 -66 136 -28 184 24 30 45 33 78 10z"/>
<path d="M3125 724 c-29 -13 -39 -21 -22 -17 l27 5 0 -96 c0 -89 -1 -96 -20
-96 -11 0 -20 -3 -20 -7 0 -5 33 -8 73 -8 59 -1 67 1 45 9 -27 10 -28 12 -28
81 0 82 15 106 65 102 24 -2 30 2 30 18 0 30 -33 30 -65 0 l-29 -27 -3 30 -3
29 -50 -23z"/>
</g>
</svg>
