<?xml version="1.0" standalone="no"?>
<!DOCTYPE svg PUBLIC "-//W3C//DTD SVG 20010904//EN"
 "http://www.w3.org/TR/2001/REC-SVG-20010904/DTD/svg10.dtd">
<svg version="1.0" xmlns="http://www.w3.org/2000/svg"
 width="332.000000pt" height="150.000000pt" viewBox="0 0 332.000000 150.000000"
 preserveAspectRatio="xMidYMid meet">

<g transform="translate(0.000000,150.000000) scale(0.100000,-0.100000)"
fill="#000000" stroke="none">
<path d="M2815 1300 c3 -5 15 -10 25 -10 26 0 32 -38 28 -190 l-3 -124 -44 -8
c-56 -10 -61 -15 -33 -39 13 -10 25 -31 27 -46 1 -16 12 -91 24 -168 18 -113
19 -144 10 -163 -24 -44 -4 -46 169 -17 36 7 42 26 13 46 -16 12 -24 47 -46
199 -31 217 -31 214 -50 206 -13 -5 -15 17 -15 159 l0 165 -56 0 c-34 0 -53
-4 -49 -10z"/>
<path d="M360 1270 c0 -5 11 -10 25 -10 35 0 37 -19 33 -242 -3 -168 -5 -198
-22 -222 -10 -16 -27 -31 -37 -33 -22 -6 -26 -23 -5 -23 30 0 85 42 103 78 15
31 19 70 23 237 l5 200 28 3 c15 2 27 8 27 13 0 5 -40 9 -90 9 -53 0 -90 -4
-90 -10z"/>
<path d="M1770 1270 c0 -5 8 -10 18 -10 38 0 42 -18 42 -190 0 -172 -4 -190
-42 -190 -10 0 -18 -4 -18 -10 0 -6 35 -10 85 -10 47 0 85 4 85 9 0 5 -10 11
-22 13 -21 3 -23 9 -26 86 l-3 82 70 0 c39 0 82 5 96 12 35 16 55 57 55 113 0
38 -5 52 -29 76 l-29 29 -141 0 c-87 0 -141 -4 -141 -10z m255 -35 c34 -33 35
-106 2 -139 -23 -23 -107 -44 -127 -31 -6 3 -10 48 -10 101 l0 94 55 0 c46 0
60 -4 80 -25z"/>
<path d="M654 1141 c-56 -24 -84 -111 -63 -194 13 -54 34 -76 86 -87 71 -16
147 15 155 65 5 31 -30 32 -38 0 -7 -27 -49 -55 -82 -55 -36 0 -64 33 -69 83
l-6 47 44 2 c24 1 58 3 74 4 17 1 43 3 59 3 28 1 28 2 23 43 -8 61 -42 90
-109 95 -29 1 -63 -1 -74 -6z m96 -21 c20 -11 45 -74 35 -90 -8 -13 -132 -13
-140 1 -4 6 -4 25 -1 43 9 47 62 70 106 46z"/>
<path d="M960 1138 c-26 -14 -52 -56 -44 -70 11 -17 33 -6 42 22 13 37 54 50
91 29 21 -12 26 -22 26 -54 l0 -40 -67 -6 c-83 -7 -108 -26 -108 -81 0 -55 27
-78 91 -78 28 0 59 5 69 10 13 7 21 7 25 0 8 -12 85 -13 85 -1 0 5 -9 11 -19
14 -17 4 -20 16 -23 115 -2 88 -7 115 -20 128 -22 22 -114 29 -148 12z m120
-176 c0 -55 -23 -82 -70 -82 -42 0 -60 18 -60 61 0 39 28 59 82 59 l48 0 0
-38z"/>
<path d="M1235 1140 l-30 -7 28 -11 27 -12 0 -110 c0 -109 0 -111 -25 -120
-14 -5 -25 -12 -25 -15 0 -3 36 -5 81 -5 51 0 78 4 74 10 -3 6 -14 10 -25 10
-25 0 -30 19 -30 116 0 71 3 87 20 104 23 23 91 28 108 8 6 -7 11 -53 12 -103
3 -125 3 -125 -19 -125 -11 0 -23 -4 -26 -10 -4 -6 23 -10 74 -10 85 0 97 4
57 20 -23 8 -24 13 -28 120 -3 103 -5 114 -27 131 -28 23 -94 25 -135 4 -35
-18 -36 -18 -36 0 0 16 -24 18 -75 5z"/>
<path d="M2180 1143 c-48 -19 -71 -83 -30 -83 13 0 20 7 20 19 0 28 27 51 58
51 41 0 54 -14 59 -62 l5 -45 -73 -5 c-60 -5 -76 -10 -91 -28 -19 -24 -24 -76
-8 -100 6 -9 5 -19 -3 -28 -8 -11 -6 -18 11 -30 24 -19 41 -88 62 -263 9 -75
9 -101 0 -119 -17 -32 -2 -40 55 -30 28 5 71 11 98 15 50 7 59 20 28 47 -13
11 -22 41 -31 104 -6 49 -18 125 -25 169 -9 55 -10 84 -3 93 12 14 84 16 93 2
3 -5 17 -86 31 -181 24 -162 24 -172 8 -190 -9 -11 -14 -22 -10 -26 6 -6 176
14 183 21 2 2 -6 54 -16 117 -11 63 -23 148 -27 190 l-6 76 43 7 c40 6 46 5
69 -24 30 -36 50 -39 50 -6 0 18 6 26 23 29 21 3 21 4 -5 15 l-27 11 -3 128
-3 128 -30 3 c-17 2 -42 -1 -55 -6 l-25 -10 27 -11 c33 -12 40 -37 36 -116 -3
-51 -6 -60 -23 -63 -54 -8 -65 -13 -65 -31 0 -11 6 -22 13 -24 6 -3 2 -6 -11
-6 -13 -1 -25 6 -29 17 -4 9 -12 21 -20 25 -9 6 -13 37 -13 117 l0 110 -27 0
c-38 0 -73 -10 -73 -21 0 -5 9 -9 20 -9 26 0 32 -26 28 -125 l-3 -79 -45 -9
c-25 -5 -48 -14 -52 -20 -16 -27 -27 13 -30 115 -4 128 -11 140 -90 144 -29 2
-60 1 -68 -3z m110 -183 c0 -51 -27 -80 -73 -80 -26 0 -36 6 -45 25 -16 34
-15 46 4 73 12 18 25 22 65 22 l49 0 0 -40z"/>
<path d="M2980 984 c0 -9 9 -23 20 -32 13 -11 24 -39 31 -80 10 -54 9 -65 -5
-81 -22 -24 -20 -36 9 -55 15 -10 26 -29 30 -53 14 -82 26 -104 63 -120 31
-13 40 -13 79 2 45 17 63 39 63 74 0 23 -24 29 -36 9 -9 -14 -22 15 -23 53 -1
33 -40 69 -74 69 -35 0 -34 9 5 42 30 24 33 32 32 79 0 45 -5 56 -32 81 -29
25 -40 28 -97 28 -53 0 -65 -3 -65 -16z"/>
<path d="M1993 843 c-19 -7 -16 -34 8 -59 11 -12 28 -37 37 -55 9 -19 24 -34
32 -34 16 0 17 31 5 113 -6 40 -8 42 -38 41 -18 0 -38 -3 -44 -6z"/>
<path d="M1860 823 c-19 -3 -39 -8 -44 -13 -8 -8 3 -91 39 -315 12 -75 12 -81
-5 -100 -35 -38 -12 -43 100 -24 58 10 106 18 108 19 11 1 -2 30 -17 35 -23 7
-25 13 -50 195 -33 229 -27 210 -64 208 -18 0 -48 -3 -67 -5z"/>
<path d="M1717 803 c-27 -4 -27 -5 -21 -56 11 -79 19 -102 37 -105 13 -3 17 4
17 30 0 18 7 46 15 62 8 15 15 39 15 52 0 25 -4 26 -63 17z"/>
<path d="M2627 760 l-26 -50 38 -40 c20 -22 41 -40 46 -40 8 0 0 116 -11 158
-9 33 -18 27 -47 -28z"/>
<path d="M1457 766 c-98 -16 -123 -38 -64 -58 7 -3 40 -193 53 -304 4 -41 3
-64 -5 -68 -22 -14 -12 -36 17 -36 25 0 142 20 150 25 3 2 -47 355 -54 377 -3
12 1 27 11 38 19 21 12 41 -13 39 -9 -1 -52 -7 -95 -13z"/>
<path d="M1240 731 c-52 -7 -68 -35 -27 -50 13 -5 27 -17 30 -25 14 -36 48
-271 42 -293 -3 -12 -18 -32 -34 -44 -19 -14 -27 -27 -24 -40 7 -25 12 -24 55
11 46 38 53 71 38 176 -29 187 -29 187 -9 222 32 55 30 56 -71 43z"/>
<path d="M996 694 c-82 -16 -96 -26 -67 -46 18 -13 26 -43 51 -183 19 -109 34
-173 46 -186 25 -27 79 -42 130 -34 38 5 44 10 44 30 0 15 -7 26 -20 30 -23 7
-22 4 -50 183 -24 159 -25 178 -5 186 8 3 15 12 15 21 0 19 -47 19 -144 -1z"/>
<path d="M710 648 c-84 -16 -90 -18 -90 -31 0 -7 23 -69 50 -137 28 -68 47
-127 43 -131 -4 -4 -19 -9 -33 -11 -17 -2 -26 -10 -28 -26 -3 -22 -1 -23 46
-16 47 6 50 5 56 -19 3 -14 3 -39 0 -57 l-7 -32 49 7 c82 11 155 28 161 38 3
5 -6 19 -20 31 -14 11 -29 32 -32 46 -4 14 -16 43 -26 65 -10 22 -39 92 -64
155 -26 63 -50 118 -53 121 -4 3 -27 2 -52 -3z"/>
<path d="M2721 597 c-13 -30 -32 -54 -51 -65 -16 -9 -30 -25 -30 -35 0 -17 6
-18 68 -12 37 4 69 9 71 11 8 7 -11 113 -24 130 -12 18 -15 15 -34 -29z"/>
<path d="M390 594 c-11 -13 -25 -14 -67 -9 -44 5 -53 4 -53 -9 0 -8 20 -24 44
-35 32 -14 51 -32 71 -65 27 -47 51 -58 62 -31 8 22 -20 158 -33 162 -6 2 -17
-4 -24 -13z"/>
<path d="M208 572 c-28 -12 -76 -60 -94 -94 -12 -23 -17 -56 -17 -110 2 -134
58 -220 162 -248 56 -15 74 -1 44 32 -22 25 -35 82 -58 258 -10 76 -12 117 -5
124 14 14 12 46 -2 45 -7 0 -20 -3 -30 -7z"/>
<path d="M610 498 c-1 -24 -7 -94 -14 -156 -11 -89 -18 -118 -35 -136 -42 -45
-21 -56 65 -35 50 13 54 25 20 54 l-25 20 14 119 c13 116 9 156 -14 171 -7 4
-11 -9 -11 -37z"/>
<path d="M1717 493 c-3 -5 -10 -27 -17 -51 -8 -31 -20 -48 -41 -60 -16 -9 -29
-25 -29 -35 0 -17 6 -18 63 -12 34 4 66 10 70 14 4 4 3 28 -2 52 -6 24 -13 56
-16 72 -5 26 -19 35 -28 20z"/>
<path d="M371 370 c-68 -10 -84 -25 -54 -48 27 -20 45 -120 29 -164 -5 -15 -8
-30 -5 -32 11 -11 82 19 116 49 l37 32 -12 64 c-7 41 -8 67 -2 73 6 6 10 16
10 23 0 14 -33 15 -119 3z"/>
</g>
</svg>
