<?xml version="1.0" standalone="no"?>
<!DOCTYPE svg PUBLIC "-//W3C//DTD SVG 20010904//EN"
 "http://www.w3.org/TR/2001/REC-SVG-20010904/DTD/svg10.dtd">
<svg version="1.0" xmlns="http://www.w3.org/2000/svg"
 width="332.000000pt" height="150.000000pt" viewBox="0 0 332.000000 150.000000"
 preserveAspectRatio="xMidYMid meet">

<g transform="translate(0.000000,150.000000) scale(0.100000,-0.100000)"
fill="#000000" stroke="none">
<path d="M1960 1461 c0 -26 5 -30 45 -40 25 -6 49 -19 52 -28 3 -8 -3 -34 -15
-57 -12 -22 -38 -81 -58 -131 -20 -49 -63 -151 -94 -225 -32 -74 -81 -191
-110 -260 -29 -69 -54 -126 -55 -128 -3 -4 -46 84 -70 146 l-17 42 52 153 c29
83 56 157 60 162 4 6 17 40 29 77 12 36 28 72 36 78 8 6 35 15 61 18 42 6 49
11 61 40 l13 32 -189 0 -189 0 -11 -31 c-14 -41 -15 -39 14 -39 43 0 48 -30
20 -107 -14 -37 -33 -90 -41 -116 -14 -45 -16 -48 -29 -30 -8 10 -15 21 -15
25 0 4 -17 44 -39 90 -124 265 -120 252 -76 260 15 2 21 12 23 41 l3 38 -186
-2 -186 -1 3 -37 c3 -34 5 -36 46 -42 27 -3 52 -14 66 -30 13 -13 61 -105 106
-204 46 -99 105 -227 132 -284 l50 -104 -48 -126 c-26 -69 -56 -151 -68 -181
-29 -78 -30 -78 -173 -95 -46 -6 -53 -10 -62 -36 l-10 -29 519 -2 519 -3 67
140 c36 77 69 146 71 153 4 8 -6 12 -30 12 -34 0 -38 -4 -68 -60 -18 -34 -50
-81 -71 -105 -60 -68 -94 -75 -380 -75 -131 0 -238 1 -238 3 0 9 35 104 47
126 7 15 13 32 13 39 0 26 17 10 45 -43 l30 -55 61 0 c37 0 65 5 71 12 6 7 27
54 48 103 21 50 78 184 127 300 137 323 194 457 208 493 14 35 67 82 93 82 33
0 47 13 47 41 l0 29 -155 0 -155 0 0 -29z"/>
<path d="M1068 144 c-9 -9 -11 -96 -2 -118 7 -17 54 -22 54 -6 0 6 -9 10 -20
10 -16 0 -19 8 -22 61 -2 33 -6 57 -10 53z"/>
<path d="M1146 128 c-22 -31 -20 -70 4 -96 26 -28 50 -28 84 -1 33 26 34 68 3
97 -30 29 -71 28 -91 0z m89 -18 c15 -17 16 -24 7 -45 -14 -30 -33 -39 -67
-31 -29 7 -42 45 -25 75 14 27 61 28 85 1z"/>
<path d="M1280 147 c-3 -3 -3 -31 -2 -62 3 -48 7 -58 28 -67 19 -9 28 -8 44 7
16 14 20 29 18 74 l-2 56 -3 -52 c-7 -96 -64 -99 -73 -4 -3 29 -7 51 -10 48z"/>
<path d="M1390 85 c0 -37 4 -65 10 -65 6 0 10 28 10 65 0 37 -4 65 -10 65 -6
0 -10 -28 -10 -65z"/>
<path d="M1447 144 c-16 -16 -6 -51 18 -62 30 -14 35 -52 7 -52 -10 0 -23 5
-30 12 -7 7 -12 8 -12 2 0 -16 22 -34 42 -34 10 0 24 11 30 25 9 21 8 28 -7
45 -10 11 -24 20 -32 20 -7 0 -13 7 -13 16 0 12 7 15 25 11 16 -3 24 0 22 7
-4 13 -40 20 -50 10z"/>
<path d="M1570 144 c0 -15 45 -124 52 -124 9 0 50 110 45 123 -2 6 -11 -11
-21 -36 -10 -26 -21 -47 -25 -47 -4 0 -13 18 -20 40 -10 34 -31 64 -31 44z"/>
<path d="M1690 91 c0 -56 2 -62 26 -73 43 -20 59 -1 60 73 1 64 1 64 -3 7 -3
-47 -8 -58 -24 -63 -29 -9 -37 2 -42 58 -6 70 -17 70 -17 -2z"/>
<path d="M1807 143 c-11 -10 -8 -123 3 -123 6 0 10 28 10 65 0 65 -1 71 -13
58z"/>
<path d="M1840 140 c0 -5 5 -10 10 -10 6 0 10 -25 10 -55 0 -30 5 -55 10 -55
6 0 10 25 10 55 l0 55 35 0 34 0 4 -62 3 -63 2 63 c2 48 5 62 17 62 8 0 15 5
15 10 0 6 -32 10 -75 10 -43 0 -75 -4 -75 -10z"/>
<path d="M2020 130 c-27 -27 -26 -71 3 -98 29 -27 57 -28 85 -2 44 41 15 120
-43 120 -14 0 -34 -9 -45 -20z m84 -16 c21 -20 20 -43 -1 -66 -20 -22 -51 -23
-75 -1 -34 31 -12 83 37 83 13 0 31 -7 39 -16z"/>
<path d="M2250 106 c0 -25 -4 -46 -9 -46 -5 0 -25 18 -45 40 -20 22 -38 40
-41 40 -3 0 -5 -27 -5 -60 0 -33 4 -60 10 -60 6 0 10 20 10 45 l0 45 42 -46
c37 -40 43 -43 49 -27 11 27 10 101 -1 108 -6 4 -10 -12 -10 -39z"/>
</g>
</svg>
