<?xml version="1.0" standalone="no"?>
<!DOCTYPE svg PUBLIC "-//W3C//DTD SVG 20010904//EN"
 "http://www.w3.org/TR/2001/REC-SVG-20010904/DTD/svg10.dtd">
<svg version="1.0" xmlns="http://www.w3.org/2000/svg"
 width="332.000000pt" height="150.000000pt" viewBox="0 0 332.000000 150.000000"
 preserveAspectRatio="xMidYMid meet">

<g transform="translate(0.000000,150.000000) scale(0.100000,-0.100000)"
fill="#000000" stroke="none">
<path d="M1559 1463 c5 -10 21 -53 36 -96 l26 -78 -30 -35 c-55 -62 -53 -115
6 -169 35 -32 36 -34 29 -85 l-7 -51 28 3 c23 2 29 8 31 36 3 33 22 46 22 15
0 -34 -31 -198 -39 -206 -12 -12 -91 9 -123 33 -33 25 -33 25 -42 -12 -6 -25
-2 -29 30 -43 20 -8 58 -15 85 -15 40 0 49 -3 49 -17 0 -19 -12 -74 -24 -111
l-8 -23 129 3 c116 3 128 5 131 22 3 15 0 18 -19 12 -13 -3 -57 -9 -96 -13
l-73 -6 0 29 c0 76 12 105 52 130 52 33 78 78 78 135 0 45 -23 91 -57 112 -7
4 -11 18 -9 30 3 12 7 35 11 50 5 26 4 28 -22 25 -22 -2 -29 -9 -31 -31 -2
-16 -8 -26 -15 -24 -21 7 -8 98 20 139 40 59 46 61 87 33 30 -20 38 -22 41
-10 3 8 7 22 10 30 3 11 -4 17 -25 22 -17 3 -33 10 -36 14 -3 5 20 45 51 89
l56 80 -28 0 c-24 0 -34 -11 -77 -81 -27 -44 -54 -82 -60 -84 -6 -2 -27 -5
-46 -8 l-36 -5 -25 86 c-24 85 -25 87 -57 90 -29 3 -32 1 -23 -15z m155 -212
c-20 -34 -34 -32 -34 5 0 19 5 24 26 24 l25 0 -17 -29z m-70 -27 c10 -25 7
-94 -4 -94 -14 0 -30 35 -30 68 0 41 22 58 34 26z m142 -332 c-5 -36 -19 -58
-46 -72 -19 -10 -19 -8 2 100 l10 54 20 -24 c15 -18 18 -34 14 -58z"/>
<path d="M1104 500 c-28 -11 -64 -58 -71 -92 -5 -24 -9 -27 -27 -22 -55 19
-96 -13 -96 -74 0 -29 9 -44 55 -89 57 -56 66 -81 39 -107 -21 -22 -57 -20
-79 4 -16 17 -19 18 -29 5 -6 -8 -32 -18 -58 -21 l-48 -7 0 67 0 66 50 0 c28
0 50 5 50 10 0 6 -22 10 -49 10 l-49 0 5 71 5 71 -28 -4 c-27 -3 -32 -11 -71
-118 -23 -63 -44 -108 -47 -100 -3 8 -12 61 -21 118 -17 110 -16 116 32 180
22 30 23 32 5 32 -14 0 -36 -31 -83 -117 l-64 -118 -12 60 c-7 33 -17 86 -23
118 -8 38 -16 57 -26 57 -11 0 -14 -8 -9 -32 32 -188 33 -221 14 -333 -22
-131 -23 -135 -6 -135 7 0 20 43 35 118 17 85 32 131 55 170 17 28 34 52 37
52 3 0 16 -57 29 -126 13 -69 27 -122 30 -117 4 4 30 65 57 135 27 70 51 128
54 128 3 0 5 -61 5 -135 l0 -135 62 0 c34 0 64 4 68 10 4 6 15 6 31 0 67 -26
114 0 114 62 0 31 -8 44 -55 89 -39 38 -55 60 -55 79 0 57 47 66 90 18 45 -51
141 -189 152 -217 14 -38 1 -87 -29 -111 -18 -14 -21 -20 -10 -20 22 0 61 55
85 120 37 101 43 110 73 110 29 0 36 -13 55 -108 4 -18 13 -32 20 -32 17 0 18
-13 -11 126 -34 165 -35 168 -44 158 -4 -5 -30 -60 -57 -122 -27 -63 -50 -108
-53 -100 -2 7 -33 58 -69 113 -80 122 -86 159 -34 206 41 37 63 37 107 -2 36
-32 53 -33 41 -4 -12 33 -96 54 -142 35z m205 -218 c7 -24 6 -32 -7 -37 -25
-9 -33 8 -20 43 14 36 15 36 27 -6z"/>
<path d="M1859 440 l-12 -60 -93 0 -93 0 -3 -122 -3 -122 -75 122 c-42 68 -82
122 -90 122 -12 0 -16 -24 -18 -146 -3 -104 -1 -144 7 -140 7 5 11 51 11 124
l0 117 88 -130 87 -130 6 115 c4 63 7 130 8 148 1 27 5 32 26 32 l25 0 0 -140
c0 -118 2 -140 15 -140 12 0 15 19 15 109 0 60 3 123 6 140 6 29 10 32 38 29
30 -3 31 -5 29 -46 -2 -36 -17 -131 -49 -295 l-6 -27 110 0 c92 0 111 3 116
16 5 13 2 15 -16 10 -31 -8 -178 -20 -178 -14 0 9 91 453 96 471 4 12 0 17
-15 17 -16 0 -22 -10 -32 -60z"/>
<path d="M820 381 c8 -4 28 -11 43 -15 21 -5 28 -3 25 6 -3 7 -22 14 -44 16
-26 1 -34 -1 -24 -7z"/>
<path d="M1981 369 c-5 -13 -32 -78 -60 -143 -29 -66 -50 -124 -47 -130 3 -9
39 60 59 117 5 14 15 17 39 15 30 -3 32 -6 45 -63 13 -57 27 -84 37 -74 6 6
-50 288 -58 297 -3 2 -10 -6 -15 -19z m11 -99 c2 -20 -2 -26 -19 -28 -26 -4
-27 0 -11 45 13 35 23 29 30 -17z"/>
<path d="M2278 384 c-5 -4 -8 -72 -8 -151 0 -111 3 -144 13 -141 8 3 14 45 18
141 3 76 9 140 13 144 12 13 59 -21 68 -49 12 -34 -8 -79 -40 -93 -12 -5 -21
-13 -20 -16 8 -21 131 -160 150 -170 22 -12 22 -11 6 8 -10 11 -18 22 -18 26
0 3 26 7 57 9 31 2 58 8 60 15 3 8 -6 9 -34 2 -63 -14 -63 -15 -63 56 l0 65
47 0 c57 0 53 8 -5 11 l-42 3 0 64 0 64 45 -6 c29 -5 45 -4 45 3 0 7 -25 11
-62 11 l-63 0 3 -142 c2 -86 0 -139 -5 -133 -5 6 -26 34 -47 64 l-38 53 26 27
c61 63 38 127 -49 137 -27 3 -53 3 -57 -2z"/>
<path d="M1398 234 c2 -107 6 -144 15 -141 8 2 13 46 15 145 2 130 1 142 -15
142 -17 0 -18 -12 -15 -146z"/>
<path d="M2080 258 c5 -132 15 -164 55 -174 63 -16 82 20 92 174 7 96 6 122
-4 122 -10 0 -13 -29 -13 -118 0 -125 -11 -162 -50 -162 -39 0 -50 37 -50 162
0 106 -2 118 -17 118 -16 0 -18 -11 -13 -122z"/>
<path d="M2595 235 c0 -80 3 -145 7 -145 4 0 9 55 10 122 l3 121 84 -126 c46
-70 86 -125 89 -123 2 3 7 67 11 143 l6 138 28 3 27 3 0 -140 c0 -119 2 -141
15 -141 12 0 15 18 15 103 0 56 3 119 7 140 5 36 8 39 34 35 16 -3 29 -1 29 4
0 4 -41 8 -91 8 l-90 0 2 -107 c1 -60 1 -115 0 -123 0 -8 -35 40 -77 108 -103
165 -109 164 -109 -23z"/>
<path d="M980 51 c0 -19 39 -51 63 -51 9 0 1 14 -19 35 -37 40 -44 42 -44 16z"/>
</g>
</svg>
